<?xml version="1.0" standalone="no"?>
<!DOCTYPE svg PUBLIC "-//W3C//DTD SVG 20010904//EN"
 "http://www.w3.org/TR/2001/REC-SVG-20010904/DTD/svg10.dtd">
<svg version="1.0" xmlns="http://www.w3.org/2000/svg"
 width="510.000000pt" height="574.000000pt" viewBox="0 0 510.000000 574.000000"
 preserveAspectRatio="xMidYMid meet">

<g transform="translate(0.000000,574.000000) scale(0.100000,-0.100000)"
fill="#000000" stroke="none">
<path d="M1505 5721 l50 -7 -48 -4 c-26 -3 -51 -2 -56 3 -4 4 -29 -2 -55 -14
-39 -17 -45 -23 -35 -35 6 -8 14 -12 18 -9 3 3 -1 11 -9 16 -13 9 -13 10 0 6
9 -3 24 1 35 9 10 8 24 14 29 14 6 0 -2 -9 -17 -19 -20 -13 -25 -20 -15 -24
12 -5 -16 -11 -36 -8 -4 1 -14 -3 -20 -8 -9 -8 -13 -7 -13 4 0 8 5 11 10 8 6
-3 7 -1 3 5 -9 14 -28 5 -101 -46 -55 -39 -155 -132 -155 -144 0 -16 19 -8 23
10 4 14 5 14 6 -3 1 -20 -36 -52 -47 -41 -3 3 0 6 6 6 7 0 12 5 12 10 0 22
-20 8 -53 -37 -32 -43 -33 -49 -18 -60 14 -11 13 -11 -6 -7 -18 5 -27 -3 -52
-47 -16 -29 -27 -57 -24 -63 4 -6 8 -6 11 2 2 7 8 10 13 6 5 -3 9 0 9 5 0 6
-4 11 -9 11 -5 0 -4 11 2 24 15 31 17 28 22 -25 2 -25 1 -38 -4 -30 -6 9 -10
6 -15 -13 -3 -14 -11 -26 -17 -26 -8 0 -7 5 1 15 7 9 10 18 7 21 -3 4 -15 -9
-26 -27 -19 -32 -20 -59 -1 -29 6 9 10 10 10 3 0 -7 -8 -16 -17 -21 -12 -7
-17 -24 -17 -66 0 -31 -4 -56 -8 -56 -4 0 -8 -7 -8 -15 0 -8 5 -15 12 -15 6 0
9 -2 6 -5 -10 -10 -36 6 -41 26 -3 13 0 19 10 19 10 0 14 6 10 19 -2 10 -1 25
4 33 6 10 3 15 -7 15 -8 0 -13 -6 -10 -14 3 -7 2 -13 -3 -13 -4 0 -13 -17 -19
-39 -13 -41 -15 -67 -4 -39 7 17 8 16 19 -2 10 -15 10 -18 0 -15 -23 9 -34
-10 -46 -76 -14 -84 -15 -120 -1 -99 8 13 10 13 10 -2 0 -9 -5 -18 -10 -20 -6
-2 -14 -30 -17 -62 -6 -58 -6 -58 18 -52 18 6 20 5 9 -3 -12 -8 -26 -81 -16
-81 2 0 15 18 30 40 14 22 24 40 21 40 -15 0 159 149 200 171 72 39 200 67
358 79 76 6 162 15 190 21 172 36 314 181 387 394 l19 56 -24 9 c-79 30 -142
42 -194 37 -38 -4 -50 -3 -36 3 21 10 21 10 -98 -5 -89 -12 -235 -70 -329
-133 -30 -19 -36 -28 -27 -38 8 -10 8 -14 1 -14 -6 0 -14 5 -17 11 -7 11 -57
-22 -117 -79 -20 -19 -42 -32 -48 -30 -18 6 180 190 268 249 85 56 96 65 68
55 -15 -5 -17 -4 -8 7 7 7 13 24 15 36 3 21 57 59 57 40 0 -5 -10 -14 -22 -19
-13 -5 -17 -9 -9 -9 11 -1 10 -5 -5 -17 -18 -15 -18 -15 5 -8 16 4 21 3 16 -5
-4 -7 9 -5 32 5 82 36 169 54 266 57 53 1 97 -1 97 -5 0 -5 6 -8 13 -8 6 1
-13 23 -43 51 -65 59 -184 122 -213 113 -12 -4 -17 -2 -13 4 8 14 -81 32 -147
30 l-52 -1 50 -6z m138 -31 c17 -20 43 -28 32 -10 -3 6 -2 10 4 10 5 0 12 -4
15 -9 3 -4 19 -11 36 -14 18 -4 30 -13 30 -22 0 -15 -1 -15 -16 -1 -8 9 -20
16 -27 16 -6 0 -3 -6 7 -13 17 -12 17 -14 2 -20 -9 -4 -16 -2 -16 3 0 4 -16 7
-35 5 -19 -2 -38 1 -41 6 -3 5 1 6 9 3 8 -3 14 2 14 11 0 9 -6 14 -14 11 -7
-3 -12 -2 -12 2 3 21 -3 31 -23 35 -20 4 -21 4 -3 6 11 0 28 -8 38 -19z m-333
-60 c-6 -11 -7 -20 -3 -20 12 0 -20 -20 -32 -20 -5 0 -3 5 5 10 17 11 10 13
-14 4 -12 -5 -13 -9 -3 -19 8 -8 18 -10 28 -4 11 5 16 4 16 -6 0 -7 -7 -11
-15 -7 -9 3 -13 1 -9 -5 5 -7 -7 -10 -33 -9 -22 1 -41 -3 -43 -8 -3 -6 -8 -8
-12 -4 -9 8 5 23 68 71 56 42 62 45 47 17z m536 -36 c12 -13 23 -21 26 -19 3
3 10 -1 16 -8 9 -11 4 -13 -27 -13 -22 1 -43 5 -48 10 -5 5 4 6 20 2 19 -4 26
-3 22 4 -9 14 -52 13 -58 -2 -4 -8 -6 -7 -6 4 -1 9 -7 18 -13 21 -7 2 -5 3 4
2 9 -2 19 4 22 12 3 8 2 11 -4 8 -5 -3 -14 5 -21 17 l-12 22 29 -18 c16 -10
38 -29 50 -42z m-429 40 c-3 -3 -12 -4 -19 -1 -8 3 -5 6 6 6 11 1 17 -2 13 -5z
m341 -81 c-10 -2 -26 -2 -35 0 -10 3 -2 5 17 5 19 0 27 -2 18 -5z m-261 -9
c-3 -3 -12 -4 -19 -1 -8 3 -5 6 6 6 11 1 17 -2 13 -5z m144 -4 c22 -10 21 -10
-9 -5 -18 2 -31 1 -28 -4 8 -12 -18 -21 -42 -14 -11 2 -23 -1 -28 -8 -5 -9 -2
-10 10 -6 10 4 15 3 11 -3 -10 -16 -35 -12 -35 5 0 9 7 18 15 21 8 4 13 9 11
13 -8 12 69 12 95 1z m56 4 c-3 -3 -12 -4 -19 -1 -8 3 -5 6 6 6 11 1 17 -2 13
-5z m-497 -24 c0 -5 -7 -10 -16 -10 -8 0 -12 5 -9 10 3 6 10 10 16 10 5 0 9
-4 9 -10z m-40 -23 c0 -8 -3 -8 -9 2 -5 8 -11 9 -15 3 -3 -6 -2 -13 4 -17 5
-3 10 -12 10 -19 0 -15 -33 -56 -45 -56 -5 0 2 11 15 25 20 21 22 29 13 44 -8
13 -9 21 -1 29 13 13 28 6 28 -11z m273 -47 c-7 -28 -15 -31 -33 -12 -13 14
-12 15 2 10 10 -4 19 -1 22 8 8 21 15 17 9 -6z m-108 -10 c3 -5 1 -10 -4 -10
-6 0 -11 5 -11 10 0 6 2 10 4 10 3 0 8 -4 11 -10z m20 -64 c-53 -49 -60 -53
-72 -38 -11 15 -11 15 -7 -3 4 -15 -11 -35 -58 -80 -105 -101 -118 -110 -131
-95 -9 10 -9 11 1 6 18 -11 44 18 29 33 -8 8 -8 11 2 11 7 0 9 5 6 10 -3 6 -2
10 4 10 16 0 22 -18 9 -23 -7 -2 -10 -7 -7 -11 15 -16 36 24 34 67 -2 49 9 55
45 25 10 -9 21 -14 24 -11 3 3 -2 12 -12 20 -16 13 -15 14 5 10 13 -3 28 2 35
11 11 13 10 15 -4 10 -11 -5 -15 -2 -14 10 2 9 8 17 14 17 7 0 12 5 11 10 0 6
-7 9 -15 7 -8 -2 -14 1 -14 6 0 13 34 11 42 -2 5 -8 8 -7 8 2 0 6 5 12 12 12
6 0 4 -8 -6 -19 -15 -16 -15 -19 -2 -24 9 -4 15 -1 13 6 -1 7 3 11 9 10 7 -1
10 9 7 25 -2 17 0 21 4 12 10 -18 33 -24 33 -9 0 13 30 38 45 39 6 0 -17 -24
-50 -54z m340 44 c-3 -5 -16 -10 -28 -11 -21 0 -21 -1 -2 -9 14 -6 15 -9 5 -9
-9 -1 -22 5 -29 12 -11 10 -12 9 -6 -2 6 -11 3 -13 -16 -8 -44 10 -64 -6 -61
-46 2 -23 -1 -37 -8 -37 -6 0 -8 5 -5 10 3 6 2 10 -4 10 -5 0 -13 -4 -16 -10
-3 -5 -21 -10 -38 -9 -18 0 -26 3 -19 6 6 2 12 9 12 14 0 6 -4 7 -10 4 -5 -3
-10 -2 -10 4 0 16 38 37 110 59 102 32 135 38 125 22z m203 -13 c10 -11 12
-17 4 -17 -7 0 -12 5 -12 10 0 6 -9 10 -20 10 -11 0 -20 -4 -20 -10 0 -5 -5
-10 -11 -10 -6 0 -8 8 -5 18 5 15 4 15 -6 2 -7 -8 -22 -16 -33 -18 -16 -2 -17
-1 -5 7 8 6 11 11 5 11 -5 0 -3 5 5 10 21 14 78 6 98 -13z m-813 3 c3 -5 2
-10 -4 -10 -5 0 -13 5 -16 10 -3 6 -2 10 4 10 5 0 13 -4 16 -10z m685 0 c0 -5
-4 -10 -10 -10 -5 0 -10 5 -10 10 0 6 5 10 10 10 6 0 10 -4 10 -10z m188 -11
c2 -5 7 -7 12 -4 4 3 19 1 32 -5 21 -8 20 -9 -10 -7 -19 1 -36 5 -38 9 -3 4
-12 4 -21 1 -10 -4 -14 -2 -10 4 4 6 1 14 -5 17 -7 3 -2 3 12 0 14 -4 27 -11
28 -15z m-902 -15 c-3 -8 1 -26 10 -39 11 -16 12 -25 4 -30 -6 -4 -14 -4 -17
-1 -4 3 -1 6 6 6 8 0 4 11 -9 30 -12 17 -16 30 -10 30 6 0 8 5 5 10 -3 6 -1
10 5 10 7 0 9 -7 6 -16z m661 10 c-3 -3 -12 -4 -19 -1 -8 3 -5 6 6 6 11 1 17
-2 13 -5z m272 -45 c11 -19 11 -21 -3 -16 -9 4 -16 2 -16 -2 0 -5 5 -11 11
-13 6 -2 -1 -20 -15 -41 -14 -21 -26 -41 -26 -45 0 -4 -13 -22 -28 -40 l-27
-33 -1 53 c-1 48 -1 50 8 20 5 -19 13 -30 19 -26 8 4 7 9 -1 14 -8 5 -10 15
-5 26 7 17 8 16 15 -6 l6 -25 6 28 c3 15 1 27 -4 27 -5 0 -6 5 -2 11 4 8 9 7
15 -2 14 -22 27 6 23 52 -3 44 5 49 25 18z m21 11 c0 -5 -2 -10 -4 -10 -3 0
-8 5 -11 10 -3 6 -1 10 4 10 6 0 11 -4 11 -10z m-970 -43 c0 -2 -11 -4 -25 -5
-18 -1 -23 2 -19 13 5 11 11 12 25 4 10 -5 19 -11 19 -12z m405 13 c3 -6 -1
-7 -9 -4 -18 7 -21 14 -7 14 6 0 13 -4 16 -10z m-15 -17 c0 -3 -7 -3 -15 0 -8
4 -17 2 -21 -4 -3 -6 -17 -14 -30 -19 -17 -7 -22 -14 -17 -27 6 -16 5 -16 -10
-4 -16 13 -14 16 24 42 36 23 69 29 69 12z m-33 -38 c0 -8 -4 -12 -9 -9 -5 3
-6 10 -3 15 9 13 12 11 12 -6z m-26 -7 c1 -7 1 -17 0 -22 -1 -5 5 -6 14 -3 8
4 15 2 15 -2 0 -5 -15 -9 -34 -8 -29 1 -32 3 -19 12 9 7 13 17 9 23 -4 7 -2
12 3 12 6 0 12 -6 12 -12z m-56 -37 c-3 -3 -10 1 -15 9 -9 14 -14 7 -11 -12 0
-5 -3 -8 -9 -8 -13 0 -13 13 2 28 8 8 15 9 25 0 7 -6 11 -13 8 -17z m-67 -35
c-10 -7 -14 -17 -10 -22 4 -4 0 -3 -10 4 -12 10 -18 10 -24 1 -4 -7 -3 -9 3
-6 6 4 13 1 16 -6 3 -8 -6 -13 -25 -14 -28 -1 -29 0 -11 19 18 20 48 36 68 37
6 0 2 -6 -7 -13z m57 -6 c-3 -5 -10 -10 -16 -10 -5 0 -9 5 -9 10 0 6 7 10 16
10 8 0 12 -4 9 -10z m515 -55 c0 -9 6 -12 16 -8 12 5 13 7 2 14 -9 6 -6 8 10
6 12 0 22 -2 22 -2 0 -1 -15 -16 -33 -33 l-33 -32 0 35 c1 19 4 35 8 35 5 0 8
-7 8 -15z m-152 -72 c-10 -2 -19 -9 -19 -14 -1 -5 -2 -14 -3 -19 -1 -13 -26
-30 -44 -30 -7 0 -10 5 -7 10 3 6 16 10 28 10 18 0 19 2 7 10 -13 9 -13 10 0
10 13 0 13 2 1 9 -11 7 -10 10 5 14 10 2 26 5 34 5 10 0 9 -2 -2 -5z m102 2
c0 -9 -61 -36 -70 -30 -18 11 -10 24 18 28 46 7 52 7 52 2z m-197 -72 c-7 -2
-21 -2 -30 0 -10 3 -4 5 12 5 17 0 24 -2 18 -5z m-265 -31 c2 -8 -7 -12 -30
-11 l-33 1 30 8 30 8 -32 1 c-17 0 -33 -5 -36 -11 -2 -8 -8 -9 -13 -4 -5 5 -4
11 4 13 6 3 10 8 7 12 -2 4 12 5 32 2 20 -3 38 -12 41 -19z m73 19 c0 9 2 10
5 2 4 -8 15 -9 37 -2 18 5 48 9 67 8 24 -1 14 -5 -35 -14 -38 -7 -85 -16 -103
-20 -33 -7 -33 -7 -16 14 13 15 21 18 31 9 10 -8 13 -7 14 3z m-461 -11 c0 -5
-5 -10 -11 -10 -5 0 -7 5 -4 10 3 6 8 10 11 10 2 0 4 -4 4 -10z m-10 -30 c0
-5 -4 -10 -10 -10 -5 0 -10 5 -10 10 0 6 5 10 10 10 6 0 10 -4 10 -10z m345
-10 c-11 -3 -36 -13 -55 -22 -30 -14 -58 -27 -165 -77 -5 -2 -4 3 4 12 7 10
19 17 26 17 7 0 18 7 25 15 7 8 23 15 37 15 14 0 21 4 18 10 -3 6 1 10 10 10
9 0 13 5 10 10 -4 7 2 9 19 4 15 -4 26 -2 26 4 0 13 29 20 50 13 12 -4 10 -6
-5 -11z m-221 -32 c-8 -12 11 -9 24 4 9 9 12 9 12 0 0 -7 -5 -12 -12 -12 -6 0
-8 -3 -4 -7 4 -5 14 0 21 10 7 10 16 14 19 9 3 -5 -1 -15 -9 -22 -11 -9 -22
-9 -50 1 -39 14 -45 25 -16 25 11 0 17 -4 15 -8z m6 -37 c0 -4 -3 -11 -7 -15
-5 -4 -8 -11 -8 -15 0 -12 -85 -84 -92 -77 -30 29 9 78 54 70 21 -4 25 -2 20
15 -4 15 -1 18 12 13 14 -5 14 -4 2 11 -12 15 -12 17 3 11 9 -3 16 -9 16 -13z
m-180 -121 c0 -5 -6 -10 -14 -10 -8 0 -17 -10 -19 -22 -3 -17 -5 -14 -6 10 -1
26 3 32 19 32 11 0 20 -4 20 -10z m55 -9 c0 -19 -50 -55 -64 -47 -7 5 -4 14 9
28 11 12 17 24 15 28 -3 4 6 7 18 6 12 0 22 -7 22 -15z m-50 -71 c-3 -5 -14
-10 -23 -10 -15 0 -15 2 -2 10 20 13 33 13 25 0z"/>
<path d="M1675 5660 c-3 -5 1 -10 9 -10 9 0 16 5 16 10 0 6 -4 10 -9 10 -6 0
-13 -4 -16 -10z"/>
<path d="M1225 5570 c-3 -5 1 -10 9 -10 9 0 16 5 16 10 0 6 -4 10 -9 10 -6 0
-13 -4 -16 -10z"/>
<path d="M1575 5530 c3 -5 8 -10 11 -10 2 0 4 5 4 10 0 6 -5 10 -11 10 -5 0
-7 -4 -4 -10z"/>
<path d="M1160 5276 c0 -2 9 -6 20 -9 11 -3 18 -1 14 4 -5 9 -34 13 -34 5z"/>
<path d="M1500 5364 l-25 -15 25 7 25 7 -25 -21 c-28 -24 -23 -28 15 -10 27
12 29 16 17 35 -5 8 -14 8 -32 -3z"/>
<path d="M927 4803 c-4 -3 -2 -12 4 -20 9 -10 8 -13 -1 -13 -8 0 -10 -3 -7 -6
9 -9 37 15 37 32 0 14 -22 19 -33 7z m23 -13 c0 -5 -2 -10 -4 -10 -3 0 -8 5
-11 10 -3 6 -1 10 4 10 6 0 11 -4 11 -10z"/>
<path d="M873 4725 c-8 -8 -9 -16 -3 -20 5 -3 14 4 20 15 12 23 1 26 -17 5z"/>
<path d="M2530 5444 c-19 -2 -46 -7 -60 -10 -23 -5 -21 -8 23 -25 27 -11 52
-17 57 -14 5 3 10 1 12 -4 1 -4 26 -20 55 -35 37 -18 51 -22 47 -11 -3 8 -9
14 -12 13 -20 -2 -32 3 -27 12 4 6 -1 7 -12 3 -15 -5 -16 -3 -5 8 9 10 15 10
24 1 14 -14 32 -16 23 -3 -3 5 0 13 6 17 9 5 6 11 -7 21 -17 13 -10 14 56 8
41 -4 118 -16 170 -26 52 -10 99 -19 104 -19 6 0 5 -5 -2 -12 -8 -8 -15 -8
-24 0 -17 13 -136 35 -155 28 -8 -3 -11 -1 -8 4 11 18 -34 10 -45 -7 -11 -17
-11 -17 -6 1 6 16 2 18 -25 12 -17 -3 -36 -6 -42 -6 -6 0 -2 -7 9 -16 16 -13
16 -15 2 -10 -26 8 -31 -11 -7 -27 11 -8 15 -17 9 -19 -6 -2 14 -18 45 -35 46
-27 53 -29 45 -12 -6 11 -16 17 -23 13 -7 -4 -9 -3 -5 1 5 5 20 10 35 11 20 2
24 0 14 -6 -11 -6 -12 -14 -5 -28 11 -25 173 -147 194 -147 8 0 15 -5 15 -10
0 -6 52 -62 115 -125 63 -64 156 -169 205 -235 50 -66 97 -125 105 -132 8 -7
11 -13 6 -13 -4 0 3 -15 16 -32 13 -18 41 -63 62 -100 20 -38 39 -68 42 -68 3
0 2 4 -1 10 -3 6 1 7 10 4 10 -4 12 -10 6 -18 -7 -8 -1 -12 19 -12 19 -1 27 3
24 11 -3 7 -1 15 4 19 10 6 9 -30 -1 -40 -10 -11 -8 -46 2 -40 5 4 8 -2 6 -11
-1 -10 -8 -17 -14 -16 -6 2 -1 -17 11 -42 12 -24 26 -41 31 -38 6 3 5 8 0 12
-6 3 -15 16 -22 28 -9 19 -9 22 3 17 8 -3 17 -15 20 -27 4 -16 8 -19 14 -9 18
27 40 2 38 -43 0 -23 -4 -41 -8 -38 -5 2 -8 -1 -8 -8 0 -7 -2 -10 -5 -7 -3 3
-1 17 4 31 10 27 4 70 -9 62 -5 -3 -6 -22 -4 -43 4 -28 3 -33 -5 -22 -16 22
-13 5 6 -34 9 -19 21 -32 26 -29 6 3 7 1 3 -6 -10 -15 2 -51 17 -48 6 1 12 -7
14 -18 3 -16 2 -17 -6 -5 -7 9 -11 10 -11 3 0 -6 7 -18 15 -26 8 -8 12 -17 8
-20 -3 -3 7 -31 21 -63 30 -66 31 -74 10 -74 -13 0 -14 3 -5 14 8 9 8 16 2 20
-5 4 -31 46 -57 94 -75 140 -174 302 -185 302 -5 0 -9 -7 -9 -15 0 -10 -8 -14
-22 -11 -17 2 -23 10 -24 32 -2 49 -4 55 -13 50 -5 -4 -8 0 -7 6 1 7 6 13 11
13 6 0 9 -3 8 -7 -2 -5 2 -8 8 -8 5 0 8 -4 5 -8 -3 -5 1 -9 9 -9 9 0 4 14 -16
44 -17 24 -34 41 -40 38 -5 -3 -6 0 -3 8 7 19 -21 43 -32 26 -5 -8 -3 -10 7
-5 8 4 5 0 -6 -8 -18 -15 -20 -15 -26 2 -9 23 -41 62 -103 124 -32 32 -46 54
-42 64 3 9 6 20 6 25 0 6 5 7 11 3 8 -4 8 -9 0 -17 -6 -6 -11 -16 -11 -21 0
-6 8 -2 17 9 14 18 15 18 9 2 -4 -13 0 -20 13 -24 11 -3 22 -16 25 -29 4 -13
14 -24 23 -24 9 0 14 -2 11 -5 -5 -5 59 -75 69 -75 7 0 -90 121 -108 134 -9 6
-17 15 -17 19 0 5 -30 40 -66 79 -43 45 -72 68 -81 64 -8 -3 -15 -1 -15 4 0 6
4 10 9 10 12 0 -70 76 -157 149 -107 87 -314 220 -297 191 4 -8 -2 -5 -14 7
-13 14 -27 20 -38 16 -12 -5 -14 -3 -8 7 5 9 4 11 -4 6 -9 -6 -8 -14 4 -33 17
-26 14 -53 -6 -53 -8 0 -7 5 2 17 11 13 11 17 2 20 -7 3 -13 11 -13 19 0 13
-14 18 -47 17 -7 -1 -10 3 -7 8 3 5 0 9 -6 9 -6 0 -8 5 -5 10 3 6 11 10 16 10
6 0 7 -4 4 -10 -3 -6 1 -7 9 -4 9 3 16 7 16 9 0 4 -179 75 -190 75 -6 0 -9
-55 -8 -147 1 -97 3 -131 8 -98 l6 50 5 -40 6 -40 1 43 c1 23 -2 42 -8 42 -6
0 -10 26 -10 58 0 43 3 53 11 42 8 -11 9 -6 4 22 -6 40 4 53 35 43 11 -4 17
-12 13 -21 -3 -8 1 -14 8 -14 11 0 11 -3 -1 -10 -23 -15 -32 -12 -25 9 3 11 1
22 -5 26 -6 4 -10 -10 -10 -39 0 -25 -4 -46 -10 -46 -5 0 -10 -13 -10 -30 0
-16 4 -30 9 -30 4 0 11 -19 14 -42 5 -35 2 -47 -15 -65 -20 -22 -21 -26 -8
-95 24 -138 116 -358 142 -342 6 4 9 1 6 -7 -5 -14 17 -69 28 -69 3 0 2 5 -2
12 -4 7 -3 8 5 4 6 -4 9 -11 6 -15 -2 -5 9 -28 26 -51 40 -55 189 -210 202
-210 5 0 5 5 -2 13 -11 14 -5 27 11 27 5 0 6 -11 4 -25 -4 -20 6 -33 52 -73
84 -71 142 -115 142 -106 0 12 -48 52 -55 46 -3 -4 -3 2 1 13 7 18 8 18 17 -3
6 -12 18 -24 28 -27 11 -4 19 -11 19 -16 0 -20 2 -25 17 -41 9 -10 22 -18 29
-18 7 0 14 -4 16 -9 7 -18 107 -90 113 -81 7 12 -2 30 -16 30 -6 0 -7 -6 -3
-12 4 -7 3 -9 -1 -5 -5 4 -10 14 -11 22 -2 12 2 12 17 5 13 -7 19 -7 19 0 0 5
3 10 8 10 4 0 7 -16 8 -36 0 -22 -2 -30 -7 -22 -6 8 -9 9 -9 2 0 -16 27 -37
39 -30 5 4 13 1 17 -5 5 -8 2 -10 -7 -5 -8 4 0 -4 16 -18 60 -51 94 -83 186
-171 51 -49 86 -81 78 -70 -9 11 -14 26 -11 34 2 8 0 11 -6 7 -6 -3 -14 -1
-18 5 -3 6 -1 15 6 19 9 6 10 9 0 15 -7 4 -16 1 -21 -6 -5 -9 -9 -10 -9 -2 0
19 12 43 22 43 5 0 7 -3 5 -7 -5 -10 30 -43 37 -35 9 8 7 -3 -3 -32 -7 -18 -6
-28 4 -36 8 -6 12 -17 9 -24 -3 -7 3 -19 12 -27 15 -12 16 -12 9 10 -5 17 -4
21 5 16 6 -4 10 -17 9 -28 -2 -12 14 -48 34 -79 20 -31 42 -68 49 -82 13 -29
19 -31 36 -14 12 12 15 8 27 -47 6 -29 6 -29 -14 -11 -29 27 -26 4 4 -32 14
-17 21 -32 15 -34 -6 -2 -6 -15 0 -40 8 -28 15 -36 26 -31 18 7 35 -14 27 -34
-3 -7 -12 -13 -20 -13 -11 0 -14 -6 -9 -22 3 -13 6 -38 6 -56 0 -18 3 -31 8
-29 4 3 7 -39 7 -93 0 -54 -3 -94 -6 -88 -5 8 -9 -21 -23 -168 -1 -11 -5 -24
-8 -30 -5 -8 -18 -64 -33 -137 -5 -24 49 20 141 115 232 240 372 507 445 849
19 89 23 135 23 314 0 181 -3 224 -22 314 -52 240 -150 468 -279 651 -82 115
-269 305 -378 381 -222 157 -447 250 -710 295 -90 15 -339 26 -405 18z m85
-23 c-19 -8 -18 -9 5 -13 24 -5 24 -5 -3 -7 -16 0 -26 -5 -22 -11 3 -5 1 -10
-5 -10 -7 0 -9 9 -5 23 5 17 4 19 -4 7 -10 -13 -12 -13 -21 0 -6 10 -10 11
-10 3 0 -7 -5 -13 -11 -13 -5 0 -7 5 -3 11 4 7 0 9 -12 5 -11 -3 -26 -1 -34 4
-10 7 10 10 65 9 51 0 73 -3 60 -8z m127 -90 c-4 -27 -6 -29 -23 -18 -11 7
-14 14 -9 15 6 2 3 10 -7 18 -17 13 -16 14 7 11 14 -2 19 -2 13 0 -7 3 -13 12
-13 20 0 14 2 14 18 0 13 -12 17 -26 14 -46z m294 23 l29 -16 -40 7 c-29 4
-36 3 -25 -4 8 -6 25 -11 37 -11 12 0 25 -4 28 -10 10 -17 -17 -11 -80 16 -36
15 -48 23 -28 19 18 -4 34 -2 38 4 8 14 7 14 41 -5z m114 -31 c73 -29 109 -48
110 -57 0 -4 -7 -6 -15 -2 -30 11 -14 -5 17 -19 l33 -13 -38 1 c-21 0 -31 4
-25 8 9 6 8 10 -5 15 -9 3 -14 10 -11 15 7 12 -83 52 -98 43 -7 -4 -8 -3 -4 4
4 7 1 12 -9 12 -9 0 -13 -4 -10 -10 3 -5 1 -10 -5 -10 -7 0 -10 6 -7 14 3 8 1
17 -6 20 -23 11 39 -7 73 -21z m-177 0 c-7 -2 -21 -2 -30 0 -10 3 -4 5 12 5
17 0 24 -2 18 -5z m-148 -33 c-3 -5 6 -17 20 -26 14 -9 25 -23 25 -30 0 -15
21 -15 31 0 4 4 10 3 13 -3 4 -6 2 -11 -4 -11 -6 0 -9 -4 -6 -9 4 -5 -3 -7
-14 -4 -11 3 -25 14 -31 24 -5 11 -18 19 -28 19 -13 0 -18 7 -16 23 3 26 3 27
11 27 3 0 3 -4 -1 -10z m76 -16 c12 -14 11 -16 -5 -13 -11 2 -21 10 -24 17 -5
17 13 15 29 -4z m296 0 c-3 -3 -12 -4 -19 -1 -8 3 -5 6 6 6 11 1 17 -2 13 -5z
m88 -14 c-3 -5 -11 -10 -16 -10 -6 0 -7 5 -4 10 3 6 11 10 16 10 6 0 7 -4 4
-10z m124 -60 c16 -8 20 -15 13 -22 -14 -14 -92 -28 -92 -17 0 5 15 9 34 9 19
0 38 5 41 10 4 7 -2 9 -19 4 -16 -4 -33 0 -48 11 -19 15 -20 16 -3 10 45 -16
58 -18 51 -7 -4 7 -14 12 -22 12 -8 0 -14 5 -14 11 0 6 -7 8 -16 5 -10 -4 -13
-2 -8 6 5 7 2 9 -8 6 -9 -4 -15 0 -15 8 0 10 11 8 41 -10 23 -13 52 -29 65
-36z m-206 43 c-7 -2 -19 -2 -25 0 -7 3 -2 5 12 5 14 0 19 -2 13 -5z m-227
-29 c-21 -15 -20 -25 0 -17 14 5 15 3 5 -14 -9 -17 -7 -22 7 -29 9 -4 24 -8
32 -8 8 -1 14 -7 13 -13 -4 -18 7 -16 21 2 9 13 11 10 12 -16 1 -21 -1 -27 -7
-18 -7 11 -9 10 -9 -3 0 -10 -5 -18 -11 -18 -6 0 -9 7 -6 14 4 10 1 13 -8 10
-9 -4 -12 0 -9 14 3 11 0 19 -8 20 -27 2 -44 8 -70 26 -28 18 -29 42 -2 32 12
-5 18 5 15 26 0 4 9 6 20 5 18 -1 18 -3 5 -13z m-474 -7 c7 -8 20 -11 28 -9
12 4 13 3 3 -10 -7 -8 -10 -17 -7 -20 2 -3 -3 -8 -12 -12 -12 -5 -15 -2 -10 9
3 9 2 13 -3 10 -5 -3 -12 -1 -16 5 -3 5 -1 10 6 10 7 0 4 7 -7 15 -10 8 -14
15 -7 15 6 0 18 -6 25 -13z m-27 -38 c11 -17 -1 -21 -15 -4 -8 9 -8 15 -2 15
6 0 14 -5 17 -11z m965 -4 c-7 -8 -17 -15 -23 -15 -6 0 -2 7 9 15 25 19 30 19
14 0z m78 -57 c-9 -6 -7 -8 8 -6 21 3 113 -61 150 -104 10 -13 2 -8 -19 10
-35 30 -67 36 -51 10 4 -6 1 -9 -7 -6 -8 3 -13 15 -11 30 3 21 -1 26 -20 26
-78 1 -115 15 -88 32 10 7 11 10 3 10 -7 0 -13 5 -13 11 0 8 5 7 15 -1 9 -7
18 -10 22 -6 8 7 -38 42 -50 38 -5 -1 -6 2 -2 8 4 6 20 0 41 -17 26 -20 32
-28 22 -35z m-874 26 c3 -8 2 -12 -4 -9 -6 3 -10 10 -10 16 0 14 7 11 14 -7z
m77 -31 c16 -10 29 -20 29 -23 0 -9 -87 -6 -97 3 -4 5 1 15 11 23 24 17 22 18
57 -3z m61 -43 c15 0 98 -60 98 -72 0 -6 -7 -7 -17 -2 -10 4 -36 7 -58 6 -34
0 -36 1 -15 8 20 6 15 13 -10 12 -3 0 -11 6 -18 14 -15 17 -8 18 18 4 16 -8
18 -8 14 5 -6 14 -17 19 -36 16 -4 0 -4 7 -1 16 4 11 8 13 11 5 2 -7 8 -12 14
-12z m298 0 c15 -21 40 -27 40 -10 0 6 -5 10 -12 10 -6 0 -8 3 -5 6 4 4 13 2
21 -5 11 -9 15 -9 19 1 4 10 6 10 6 0 1 -7 -6 -15 -14 -18 -8 -4 -12 -10 -9
-15 3 -5 9 -7 13 -4 5 2 8 -5 7 -18 -1 -13 4 -21 12 -19 8 1 11 -2 8 -7 -4 -5
-2 -12 4 -16 5 -3 10 0 10 7 0 8 12 14 28 15 15 1 21 -1 13 -4 -11 -5 -11 -7
0 -15 10 -6 7 -7 -10 -3 -16 5 -21 4 -17 -4 4 -6 14 -11 22 -11 8 0 14 -7 14
-15 0 -8 -5 -15 -11 -15 -5 0 -7 -5 -4 -10 4 -6 11 -7 17 -4 7 4 8 2 4 -4 -4
-7 -2 -12 3 -12 6 0 11 6 12 13 0 10 2 10 6 0 2 -7 9 -13 14 -13 6 0 8 4 5 8
-2 4 3 8 13 9 14 1 17 -6 16 -38 -1 -21 1 -39 4 -40 3 -1 21 -2 40 -3 19 -1
36 -7 37 -14 2 -8 1 -9 -3 -1 -4 8 -8 7 -15 -2 -7 -11 -11 -11 -15 -1 -2 6 -9
12 -14 12 -6 0 -7 -4 -4 -10 3 -5 0 -10 -7 -11 -10 0 -10 -2 0 -6 6 -2 12 -10
12 -16 0 -6 -16 4 -35 23 -19 18 -32 37 -29 42 3 4 10 6 15 3 5 -4 9 -1 9 5 0
7 -8 9 -22 5 -17 -6 -20 -4 -15 9 4 11 3 15 -4 10 -12 -7 -150 136 -143 148 3
5 -1 8 -8 8 -14 1 -58 34 -58 44 0 13 16 5 30 -14z m645 -100 c10 -11 16 -20
13 -20 -3 0 -13 9 -23 20 -10 11 -16 20 -13 20 3 0 13 -9 23 -20z m-772 -15
c15 -13 27 -25 27 -27 0 -8 -60 -6 -65 1 -3 5 4 7 15 4 12 -3 20 0 20 6 0 7
-4 10 -9 7 -5 -3 -20 3 -32 14 -23 18 -23 19 -4 19 11 0 32 -11 48 -24z m-83
5 c0 -5 -4 -10 -9 -10 -6 0 -13 5 -16 10 -3 6 1 10 9 10 9 0 16 -4 16 -10z
m-440 -33 c0 -3 -6 -7 -12 -10 -8 -3 -14 5 -14 19 -2 20 0 21 12 9 8 -7 14
-16 14 -18z m600 -42 c0 13 23 -13 26 -28 1 -8 -8 -13 -22 -13 -13 0 -24 4
-24 9 0 5 7 7 15 3 22 -8 18 2 -6 15 -12 6 -19 7 -16 2 3 -5 2 -15 -2 -22 -5
-7 -8 5 -8 28 0 40 0 40 19 19 10 -11 18 -17 18 -13z m-613 -7 c-3 -8 -6 -5
-6 6 -1 11 2 17 5 13 3 -3 4 -12 1 -19z m1464 -92 c15 -17 25 -34 22 -40 -4
-5 -10 -1 -15 10 -8 18 -8 18 -5 -1 1 -12 10 -20 22 -20 11 0 26 -14 38 -35
10 -19 12 -27 4 -18 -8 10 -16 16 -18 13 -3 -2 -17 -6 -32 -9 -24 -4 -26 -3
-17 14 13 24 13 33 0 25 -5 -3 -10 2 -10 12 0 10 -9 26 -20 36 -19 16 -22 16
-36 2 -9 -8 -21 -15 -27 -15 -8 0 -7 3 2 9 8 5 10 14 6 21 -5 9 -4 11 4 6 17
-11 47 22 32 37 -6 6 -11 16 -11 21 0 6 8 -1 17 -14 10 -14 29 -38 44 -54z
m-765 0 c3 -30 -16 -35 -37 -10 -11 14 -10 18 6 30 17 13 14 19 -7 15 -5 0 -8
7 -8 16 0 28 43 -20 46 -51z m254 -1 c-7 -9 -15 -13 -17 -11 -7 7 7 26 19 26
6 0 6 -6 -2 -15z m-206 -20 c11 -8 16 -15 11 -15 -4 0 9 -15 30 -33 32 -28 35
-33 17 -34 -15 -1 -19 3 -16 15 5 15 4 16 -8 1 -25 -30 -45 -19 -44 25 1 28
-3 40 -11 39 -7 -2 -13 2 -13 7 0 14 11 12 34 -5z m219 0 c-3 -9 -8 -14 -10
-11 -3 3 -2 9 2 15 9 16 15 13 8 -4z m-883 -66 c-16 -38 -24 -37 -38 8 -14 45
-9 56 6 14 14 -38 26 -41 18 -3 -5 20 -4 23 4 12 8 -12 10 -10 11 10 1 18 3
20 6 7 3 -10 -1 -32 -7 -48z m914 45 c5 -14 4 -15 -9 -4 -17 14 -19 20 -6 20
5 0 12 -7 15 -16z m-34 -19 c0 -8 -2 -15 -4 -15 -2 0 -6 7 -10 15 -3 8 -1 15
4 15 6 0 10 -7 10 -15z m-879 -74 c7 11 9 10 9 -3 0 -9 -4 -20 -10 -23 -5 -3
-10 -4 -10 -1 0 2 -2 10 -3 18 -2 7 -2 9 1 4 2 -4 8 -2 13 5z m1489 -21 c7
-13 5 -21 -6 -31 -14 -11 -16 -10 -14 6 1 11 2 27 1 35 -1 13 -2 13 -11 0 -5
-8 -10 -10 -10 -4 0 29 23 26 40 -6z m-1445 -40 c3 -5 -4 -6 -15 -3 -11 3 -22
9 -25 13 -3 5 4 6 15 3 11 -3 22 -9 25 -13z m1507 -84 c11 -21 14 -35 7 -31
-7 5 -10 3 -7 -6 3 -8 11 -13 18 -11 10 2 11 0 2 -10 -6 -8 -9 -25 -6 -39 l5
-24 -11 23 c-5 13 -8 28 -5 32 3 5 1 12 -5 15 -6 4 -8 16 -4 27 4 15 3 18 -7
13 -9 -6 -11 -4 -6 8 3 9 -3 27 -14 40 -10 14 -19 33 -19 44 0 18 3 14 52 -81z
m-1476 62 c1 -13 5 -32 9 -44 5 -15 2 -21 -9 -21 -8 0 -17 6 -20 13 -3 8 0 11
10 7 18 -7 18 2 -1 21 -8 8 -12 22 -9 30 9 23 19 20 20 -6z m1381 0 c-3 -8 -6
-5 -6 6 -1 11 2 17 5 13 3 -3 4 -12 1 -19z m47 -48 c-6 -5 -24 21 -24 34 0 6
6 1 14 -10 8 -10 12 -21 10 -24z m-458 -5 c0 -14 -4 -25 -10 -25 -6 0 -5 -5 2
-12 7 -7 12 -16 12 -22 0 -5 -6 -1 -14 9 -10 14 -11 25 -5 37 6 11 6 18 0 18
-5 0 -11 -5 -13 -12 -3 -7 -7 -5 -11 6 -4 9 -3 15 1 12 4 -2 14 -1 22 5 8 5
15 9 16 9 0 0 0 -11 0 -25z m-403 -51 c7 -7 -29 -44 -43 -44 -15 0 -12 11 7
32 17 19 26 22 36 12z m-473 -62 c0 -29 -2 -33 -15 -22 -17 14 -21 35 -5 25
16 -10 11 1 -7 16 -11 10 -14 10 -9 2 4 -7 3 -13 -2 -13 -6 0 -12 6 -15 13 -3
9 4 13 24 13 26 0 29 -3 29 -34z m1424 -12 c-5 -20 -3 -22 6 -10 9 12 11 12 8
1 -2 -8 -12 -15 -22 -17 -13 -2 -16 2 -10 14 4 9 7 28 7 41 -1 17 1 20 8 10 4
-8 6 -25 3 -39z m-643 8 c-11 -11 -14 -10 -18 0 -3 6 -9 10 -14 6 -5 -3 -9 0
-9 6 0 7 7 10 15 6 8 -3 15 0 15 6 0 9 3 9 12 0 9 -9 9 -15 -1 -24z m-707 -61
c6 -29 4 -58 -3 -51 -3 3 -6 11 -6 17 -1 7 -6 11 -12 10 -6 -1 -17 4 -23 12
-9 11 -10 15 -1 15 7 0 10 4 7 8 -2 4 4 9 15 9 12 1 20 -6 23 -20z m1410 -95
c20 -71 24 -97 16 -110 -11 -16 -11 -16 -6 1 7 21 -15 107 -27 107 -4 0 -5 10
-2 21 5 14 3 19 -3 15 -6 -4 -10 1 -10 11 0 10 -2 32 -6 48 -16 66 13 -4 38
-93z m-1326 23 c4 -5 1 -5 -5 -1 -7 4 -13 3 -13 -2 0 -15 -28 -23 -36 -10 -4
7 -3 8 4 4 7 -4 12 -3 12 3 0 5 -8 12 -17 14 -10 3 -3 4 15 3 17 -2 35 -6 40
-11z m753 -64 c-1 -7 2 -10 9 -6 6 3 10 3 9 -2 -3 -19 2 -34 10 -29 13 8 21
-18 10 -35 -7 -12 -9 -12 -9 1 0 13 -1 13 -10 0 -8 -12 -10 -12 -10 -1 0 11
-3 11 -15 1 -17 -14 -16 -16 -20 29 -2 22 0 29 6 20 6 -9 9 -10 9 -2 0 6 -4
14 -9 17 -5 3 -9 22 -8 41 l1 36 15 -28 c8 -15 14 -34 12 -42z m549 -4 c-10
-9 -11 -9 -6 0 3 6 2 14 -4 18 -5 3 -10 14 -10 23 0 13 4 11 16 -7 13 -18 14
-25 4 -34z m-1237 -12 c-13 -10 -13 -14 -3 -20 9 -5 11 -4 6 3 -4 7 -2 12 3
12 6 0 11 -7 11 -15 0 -21 -11 -19 -43 9 l-28 24 35 -1 c29 -1 32 -3 19 -12z
m817 -25 c0 -5 -5 -10 -11 -10 -5 0 -7 5 -4 10 3 6 8 10 11 10 2 0 4 -4 4 -10z
m407 -32 c-3 -7 -5 -2 -5 12 0 14 2 19 5 13 2 -7 2 -19 0 -25z m33 7 c0 -8 -4
-15 -10 -15 -5 0 -10 7 -10 15 0 8 5 15 10 15 6 0 10 -7 10 -15z m-508 -37
c-9 -9 -12 -7 -12 12 0 19 3 21 12 12 9 -9 9 -15 0 -24z m-682 12 c0 -5 -2
-10 -4 -10 -3 0 -8 5 -11 10 -3 6 -1 10 4 10 6 0 11 -4 11 -10z m96 -9 c-11
-12 -25 -17 -38 -13 -18 4 -16 7 13 17 19 7 36 13 38 14 2 0 -4 -8 -13 -18z
m694 -3 c0 -11 4 -17 10 -13 5 3 7 11 4 19 -3 7 1 13 8 13 9 0 13 -18 14 -54
1 -41 -1 -53 -12 -49 -8 3 -11 0 -7 -9 3 -8 8 -13 12 -11 4 3 8 -6 9 -20 1
-13 -3 -24 -8 -24 -6 0 -10 5 -10 10 0 19 -2 25 -12 38 -7 8 -7 16 2 27 6 8
10 22 7 32 -4 14 -5 13 -6 -5 0 -13 -5 -21 -11 -17 -5 3 -7 12 -4 20 8 19 -14
57 -28 49 -6 -4 -8 -3 -5 3 11 17 37 10 37 -9z m437 0 c-3 -8 -6 -5 -6 6 -1
11 2 17 5 13 3 -3 4 -12 1 -19z m-1119 -30 c-2 -40 2 -48 20 -48 14 0 14 2 3
9 -10 7 -7 9 12 8 23 -2 24 -3 10 -19 -12 -13 -20 -15 -39 -6 -13 6 -22 14
-19 17 2 4 0 13 -5 20 -5 8 -3 19 3 27 16 18 16 17 15 -8z m633 -55 c23 -43
49 -86 57 -95 14 -16 13 -18 -2 -18 -10 0 -14 -5 -10 -12 4 -7 3 -8 -4 -4 -7
4 -17 17 -22 29 -11 21 -11 21 4 3 16 -20 21 -11 10 18 -3 9 -10 13 -15 10 -5
-3 -6 2 -3 11 5 13 0 15 -30 11 -21 -3 -34 -1 -30 5 3 5 9 7 14 4 12 -7 41 6
35 16 -3 4 -12 6 -20 2 -9 -3 -15 1 -15 8 0 11 -2 11 -8 2 -4 -7 -8 10 -7 37
0 28 1 50 2 50 1 0 21 -35 44 -77z m496 5 c-2 -13 -4 -3 -4 22 0 25 2 35 4 23
2 -13 2 -33 0 -45z m-554 23 c2 -10 1 -24 -3 -30 -4 -7 -7 1 -8 18 -1 35 3 40
11 12z m-501 -23 c-8 -8 -9 -15 -1 -25 9 -10 8 -13 -2 -13 -9 -1 -8 -5 5 -15
11 -8 15 -15 9 -15 -15 0 -34 25 -25 35 4 5 -2 5 -13 1 -17 -6 -17 -4 4 18 14
15 27 26 30 26 3 0 0 -5 -7 -12z m1074 -298 c-3 -85 -10 -171 -15 -190 -7 -26
-8 -17 -3 35 4 39 7 151 7 250 -1 139 1 166 8 120 4 -33 6 -130 3 -215z m-896
139 c0 -5 -5 -9 -11 -9 -5 0 -7 5 -3 12 4 7 3 8 -5 4 -9 -6 -9 -11 1 -24 12
-14 10 -14 -11 -2 -23 12 -24 13 -6 26 18 14 35 10 35 -7z m40 1 c0 -5 -2 -10
-4 -10 -3 0 -8 5 -11 10 -3 6 -1 10 4 10 6 0 11 -4 11 -10z m-20 -30 c0 -5 -2
-10 -4 -10 -3 0 -8 5 -11 10 -3 6 -1 10 4 10 6 0 11 -4 11 -10z m43 -44 c12
-3 24 -1 25 4 2 6 8 10 13 10 6 0 7 -4 4 -10 -8 -13 1 -13 28 1 21 11 21 11 6
-7 -29 -34 -31 -54 -6 -64 13 -5 16 -9 7 -10 -13 0 -13 -1 0 -10 8 -5 12 -10
8 -10 -16 0 -127 114 -120 124 4 7 8 5 10 -5 2 -10 13 -20 25 -23z m84 -36
c-1 -11 -5 -20 -9 -20 -10 0 -10 4 -2 24 8 22 13 20 11 -4z m108 -130 c3 -5 1
-10 -4 -10 -6 0 -11 5 -11 10 0 6 2 10 4 10 3 0 8 -4 11 -10z m52 -101 l3 -31
-19 23 c-10 12 -16 31 -13 42 7 26 24 6 29 -34z m40 -45 c-3 -3 -12 -4 -19 -1
-8 3 -5 6 6 6 11 1 17 -2 13 -5z m24 -8 c-10 -12 -9 -20 4 -39 11 -18 13 -27
5 -32 -6 -4 -14 -4 -17 -1 -4 3 -1 6 6 6 7 0 9 5 6 10 -4 6 -11 8 -16 5 -5 -3
-6 1 -3 10 4 10 2 15 -6 13 -7 -2 -15 3 -18 11 -2 8 0 11 6 8 5 -4 15 0 22 8
7 8 15 15 17 15 3 0 0 -6 -6 -14z m436 -8 c-3 -8 -6 -5 -6 6 -1 11 2 17 5 13
3 -3 4 -12 1 -19z m57 -22 c-3 -21 -9 -35 -11 -32 -3 3 -2 21 1 42 4 20 10 34
12 31 3 -3 2 -21 -2 -41z m-37 2 c-3 -7 -5 -2 -5 12 0 14 2 19 5 13 2 -7 2
-19 0 -25z m-277 2 c0 -5 -2 -10 -4 -10 -3 0 -8 5 -11 10 -3 6 -1 10 4 10 6 0
11 -4 11 -10z m290 -89 c-10 -25 -10 -25 -7 7 2 17 0 32 -4 32 -5 0 -6 7 -2
17 5 14 8 12 15 -7 5 -14 4 -34 -2 -49z m-320 45 c0 -7 -9 -16 -20 -19 -23 -6
-26 3 -8 21 16 16 28 15 28 -2z m291 -39 c-6 -6 -11 -18 -10 -26 0 -11 3 -10
8 4 7 17 9 16 15 -9 4 -17 3 -33 -3 -39 -8 -8 -11 -7 -11 2 0 7 -3 10 -7 8 -9
-6 -16 61 -7 74 3 5 10 6 16 3 6 -4 6 -10 -1 -17z m-196 -47 c3 -5 -1 -10 -9
-10 -9 0 -16 5 -16 10 0 6 4 10 9 10 6 0 13 -4 16 -10z m-54 -20 l24 -19 -25
-1 c-25 0 -50 16 -50 32 0 15 27 8 51 -12z m-19 -42 c7 -18 -2 -39 -13 -32
-12 7 -12 44 0 44 5 0 11 -6 13 -12z m256 -40 c-10 -27 -28 -39 -28 -18 0 6 5
10 11 10 6 0 9 8 7 18 -3 11 0 19 7 19 10 0 10 -7 3 -29z m-23 -48 c3 -6 0
-13 -8 -16 -9 -3 -13 -13 -9 -27 6 -25 3 -23 -23 18 -15 25 -16 28 -2 16 15
-12 21 -9 18 12 -2 11 17 9 24 -3z m-41 -47 c13 -26 11 -33 -26 -103 -21 -41
-37 -67 -34 -57 4 10 2 15 -4 12 -6 -3 -10 -14 -10 -23 0 -19 -82 -153 -96
-155 -4 -1 -9 15 -9 36 -1 21 1 33 5 27 5 -8 9 -7 13 4 3 8 2 18 -3 21 -6 4
-10 11 -10 17 0 7 4 7 13 -1 11 -8 19 -5 37 14 13 13 26 22 30 20 4 -3 10 8
13 23 4 15 20 42 37 61 19 22 28 41 25 52 -3 9 -1 20 5 24 7 4 7 12 0 25 -11
20 -13 30 -5 30 2 0 11 -12 19 -27z m-246 -355 c17 3 15 -3 -5 -19 -11 -10
-14 -10 -9 -1 4 6 2 12 -3 12 -6 0 -11 -10 -11 -22 0 -12 -2 -19 -5 -16 -4 3
-3 30 2 59 7 52 7 53 13 19 3 -20 11 -34 18 -32z m36 -29 c-24 -26 -53 -31
-38 -8 3 5 9 7 14 4 5 -3 11 3 14 13 4 10 13 19 21 19 11 0 8 -8 -11 -28z
m-72 -51 c-7 -7 -12 -8 -12 -2 0 6 3 14 7 17 3 4 9 5 12 2 2 -3 -1 -11 -7 -17z
m12 -19 c-15 -16 -30 -29 -33 -29 -2 0 7 13 22 28 15 16 24 32 20 37 -5 4 -2
5 5 1 11 -6 7 -15 -14 -37z"/>
<path d="M2920 5189 c47 -39 47 -39 47 -24 0 8 -4 15 -8 15 -4 0 -16 3 -26 7
-10 3 -16 4 -13 2z"/>
<path d="M3485 5090 c-3 -5 -2 -10 4 -10 5 0 13 5 16 10 3 6 2 10 -4 10 -5 0
-13 -4 -16 -10z"/>
<path d="M3530 5089 c-13 -9 -13 -10 1 -6 9 3 23 0 30 -6 11 -10 11 -9 0 6 -7
9 -14 17 -15 17 0 0 -8 -5 -16 -11z"/>
<path d="M2673 5103 c-25 -9 -12 -19 21 -19 19 0 32 4 29 9 -3 5 -11 6 -18 3
-8 -3 -15 -1 -17 3 -2 4 -9 6 -15 4z"/>
<path d="M2807 5024 c3 -7 9 -14 14 -14 14 0 10 17 -5 23 -10 4 -13 1 -9 -9z"/>
<path d="M2840 5006 c0 -2 7 -7 16 -10 8 -3 12 -2 9 4 -6 10 -25 14 -25 6z"/>
<path d="M3280 4879 c0 -5 5 -7 10 -4 6 3 10 8 10 11 0 2 -4 4 -10 4 -5 0 -10
-5 -10 -11z"/>
<path d="M3290 4826 c0 -2 7 -9 15 -16 9 -7 15 -8 15 -2 0 5 -7 12 -15 16 -8
3 -15 4 -15 2z"/>
<path d="M2910 4956 c0 -2 7 -7 16 -10 8 -3 12 -2 9 4 -6 10 -25 14 -25 6z"/>
<path d="M3840 4793 c0 -13 29 -38 35 -31 3 3 -4 13 -15 23 -11 10 -20 13 -20
8z"/>
<path d="M3900 4705 c-7 -9 -11 -18 -8 -20 3 -3 11 1 18 10 7 9 11 18 8 20 -3
3 -11 -1 -18 -10z"/>
<path d="M3089 4783 c-13 -16 -12 -17 4 -4 16 13 21 21 13 21 -2 0 -10 -8 -17
-17z"/>
<path d="M3167 4693 c3 -7 6 -13 8 -13 1 0 7 6 13 13 8 10 6 13 -7 13 -11 0
-17 -6 -14 -13z"/>
<path d="M2710 4322 c0 -5 7 -9 15 -9 8 0 15 4 15 9 0 4 -7 8 -15 8 -8 0 -15
-4 -15 -8z"/>
<path d="M3566 4144 c-4 -9 -4 -19 -1 -22 3 -3 5 0 5 7 0 8 6 11 16 7 10 -4
14 -1 12 6 -7 19 -25 20 -32 2z"/>
<path d="M3667 4022 c3 -12 9 -25 14 -28 14 -8 11 10 -6 32 -13 18 -14 18 -8
-4z"/>
<path d="M3395 3754 c22 -16 35 -18 35 -5 0 5 -12 11 -27 14 -26 5 -26 4 -8
-9z"/>
<path d="M4045 3069 c-4 -6 -5 -12 -2 -15 2 -3 7 2 10 11 7 17 1 20 -8 4z"/>
<path d="M3926 2878 c-9 -12 -16 -28 -16 -34 0 -7 -4 -14 -9 -16 -4 -1 -12
-14 -15 -28 -7 -23 -6 -23 13 5 12 17 21 36 21 43 0 6 4 12 10 12 5 0 14 9 20
20 15 28 -5 26 -24 -2z"/>
<path d="M2678 5413 c7 -3 16 -2 19 1 4 3 -2 6 -13 5 -11 0 -14 -3 -6 -6z"/>
<path d="M901 5179 c-22 -50 -23 -80 -1 -40 6 12 8 21 4 21 -3 0 3 16 15 35
11 19 17 35 12 35 -5 0 -18 -23 -30 -51z"/>
<path d="M2580 5170 c-9 -6 -10 -10 -3 -10 6 0 15 5 18 10 8 12 4 12 -15 0z"/>
<path d="M1407 4786 l-78 -11 -55 -85 c-347 -532 -356 -1236 -21 -1775 181
-293 444 -521 755 -655 217 -94 411 -133 657 -134 215 0 396 31 580 99 110 41
276 127 290 149 12 21 40 145 33 151 -2 2 -28 -12 -58 -31 -632 -404 -1442
-309 -1956 229 -194 202 -324 445 -391 727 -20 84 -26 141 -30 285 -7 260 23
426 116 651 54 129 103 209 240 395 7 11 10 18 5 18 -5 -1 -44 -7 -87 -13z"/>
<path d="M3577 4363 c3 -7 9 -10 14 -7 14 8 11 21 -5 21 -8 0 -12 -6 -9 -14z"/>
<path d="M3486 4322 c-2 -4 6 -8 19 -8 13 0 21 4 19 8 -3 4 -11 8 -19 8 -8 0
-16 -4 -19 -8z"/>
<path d="M3486 4292 c-3 -5 1 -9 9 -9 8 0 15 4 15 9 0 4 -4 8 -9 8 -6 0 -12
-4 -15 -8z"/>
<path d="M3547 3053 c-4 -3 -7 -11 -7 -17 0 -6 5 -5 12 2 6 6 9 14 7 17 -3 3
-9 2 -12 -2z"/>
<path d="M3570 3026 c0 -8 4 -17 9 -20 5 -4 7 3 4 14 -6 23 -13 26 -13 6z"/>
<path d="M3593 2860 c0 -30 2 -43 4 -27 2 15 2 39 0 55 -2 15 -4 2 -4 -28z"/>
<path d="M3593 2750 c0 -25 2 -35 4 -22 2 12 2 32 0 45 -2 12 -4 2 -4 -23z"/>
<path d="M3326 2767 c3 -10 9 -15 12 -12 3 3 0 11 -7 18 -10 9 -11 8 -5 -6z"/>
<path d="M3176 2752 c-3 -5 1 -9 9 -9 8 0 12 4 9 9 -3 4 -7 8 -9 8 -2 0 -6 -4
-9 -8z"/>
<path d="M1690 2717 c0 -2 15 -16 33 -33 l32 -29 -29 33 c-28 30 -36 37 -36
29z"/>
<path d="M3422 2654 c10 -10 20 -16 22 -13 3 3 -5 11 -17 18 -21 13 -21 12 -5
-5z"/>
<path d="M3483 2633 c9 -2 25 -2 35 0 9 3 1 5 -18 5 -19 0 -27 -2 -17 -5z"/>
<path d="M1970 2516 c0 -3 9 -10 20 -16 11 -6 20 -8 20 -6 0 3 -9 10 -20 16
-11 6 -20 8 -20 6z"/>
<path d="M2402 2460 c0 -14 2 -19 5 -12 2 6 2 18 0 25 -3 6 -5 1 -5 -13z"/>
<path d="M3229 2463 c-13 -16 -12 -17 4 -4 9 7 17 15 17 17 0 8 -8 3 -21 -13z"/>
<path d="M2098 2453 c7 -3 16 -2 19 1 4 3 -2 6 -13 5 -11 0 -14 -3 -6 -6z"/>
<path d="M3140 2420 c-8 -5 -10 -10 -5 -10 6 0 17 5 25 10 8 5 11 10 5 10 -5
0 -17 -5 -25 -10z"/>
<path d="M2437 2379 c12 -12 24 -21 27 -18 2 2 -8 13 -22 23 l-27 19 22 -24z"/>
<path d="M2518 2343 c7 -3 16 -2 19 1 4 3 -2 6 -13 5 -11 0 -14 -3 -6 -6z"/>
<path d="M2648 2333 c12 -2 32 -2 45 0 12 2 2 4 -23 4 -25 0 -35 -2 -22 -4z"/>
<path d="M750 197 l0 -184 23 3 c12 1 30 3 40 3 14 1 17 11 17 71 l0 70 60 0
60 0 0 30 0 30 -60 0 -60 0 0 50 0 50 65 0 65 0 0 30 0 30 -105 0 -105 0 0
-183z"/>
<path d="M1070 201 l0 -179 40 -4 40 -4 0 73 c0 102 28 99 98 -11 35 -57 39
-59 80 -60 23 -1 42 0 42 1 0 12 -93 144 -107 151 -16 10 -16 11 8 21 37 13
59 48 59 91 0 74 -47 100 -182 100 l-78 0 0 -179z m168 107 c36 -36 -2 -98
-60 -98 -27 0 -28 2 -28 55 l0 55 38 0 c21 0 43 -5 50 -12z"/>
<path d="M1470 198 l0 -183 102 2 103 1 3 32 3 32 -70 -4 -71 -3 0 48 0 47 60
0 60 0 0 30 0 30 -60 0 -60 0 0 45 0 45 65 0 65 0 0 30 0 30 -100 0 -100 0 0
-182z"/>
<path d="M1828 364 c-35 -18 -48 -43 -48 -88 0 -46 30 -80 100 -114 56 -28 71
-51 50 -77 -16 -19 -87 -19 -122 -1 l-28 15 0 -38 c0 -45 12 -51 98 -51 62 0
116 20 131 48 15 28 13 93 -3 115 -8 10 -43 33 -78 51 -64 34 -79 55 -58 81
14 17 92 20 121 5 17 -10 19 -7 19 24 0 22 -6 36 -16 40 -30 11 -139 5 -166
-10z"/>
<path d="M2140 195 l0 -186 36 3 37 3 3 68 c1 38 4 71 7 73 2 3 36 6 76 8 l71
4 1 -37 c1 -20 2 -54 3 -76 1 -39 2 -40 39 -43 l37 -3 0 186 0 186 -37 -3 -38
-3 -3 -72 -3 -73 -74 0 -74 0 -3 73 -3 72 -37 3 -38 3 0 -186z"/>
<path d="M2740 198 l0 -183 35 0 35 0 0 73 0 72 60 0 60 0 0 30 0 30 -61 0
-60 0 3 48 3 47 63 3 c61 3 62 3 62 32 l0 30 -100 0 -100 0 0 -182z"/>
<path d="M3060 198 l0 -184 38 1 37 2 3 71 c4 100 28 97 99 -13 35 -55 41 -60
76 -61 20 -1 37 2 37 7 0 14 -68 116 -92 138 l-21 20 27 13 c47 21 68 81 45
131 -18 40 -48 51 -151 55 l-98 4 0 -184z m164 106 c35 -35 1 -94 -54 -94 -30
0 -30 1 -30 55 l0 55 34 0 c19 0 42 -7 50 -16z"/>
<path d="M3450 243 c0 -154 11 -187 69 -218 38 -19 114 -19 155 0 58 28 70 63
74 218 l4 137 -41 0 -41 0 0 -130 c0 -126 -1 -132 -25 -155 -30 -31 -56 -32
-92 -1 -28 24 -28 26 -32 155 l-3 131 -34 0 -34 0 0 -137z"/>
<path d="M3880 200 l0 -180 40 0 40 0 0 180 0 180 -40 0 -40 0 0 -180z"/>
<path d="M4060 351 c0 -29 2 -30 53 -33 l52 -3 3 -147 c2 -139 4 -148 22 -149
11 -1 26 -2 33 -3 9 -1 13 37 17 149 l5 150 53 3 c50 3 52 4 52 33 l0 29 -145
0 -145 0 0 -29z"/>
</g>
</svg>
